<?xml version="1.0" standalone="no"?>
<!DOCTYPE svg PUBLIC "-//W3C//DTD SVG 20010904//EN"
 "http://www.w3.org/TR/2001/REC-SVG-20010904/DTD/svg10.dtd">
<svg version="1.0" xmlns="http://www.w3.org/2000/svg"
 width="512.000000pt" height="512.000000pt" viewBox="0 0 512.000000 512.000000"
 preserveAspectRatio="xMidYMid meet">

<g transform="translate(0.000000,512.000000) scale(0.100000,-0.100000)"
fill="#000000" stroke="none">
<path d="M269 5010 c-99 -17 -182 -79 -226 -168 l-28 -57 0 -840 0 -840 24
-53 c32 -71 115 -147 183 -167 40 -11 104 -15 275 -15 l223 0 0 -769 0 -769
-26 -6 c-44 -12 -74 -50 -74 -96 0 -23 21 -205 46 -403 25 -199 49 -421 54
-494 7 -116 11 -140 37 -196 17 -34 45 -80 63 -100 l32 -37 428 0 428 0 36 41
c19 23 47 69 62 104 l28 63 100 4 c89 3 108 7 155 33 66 36 115 92 141 162 17
47 20 78 20 236 l0 182 32 -55 c69 -123 174 -287 204 -320 27 -29 39 -35 74
-35 35 0 47 6 74 35 30 33 135 197 204 320 l32 55 0 -182 c0 -158 3 -189 20
-236 26 -70 75 -126 141 -162 47 -26 66 -30 155 -33 l100 -4 28 -63 c15 -35
43 -81 62 -104 l36 -41 428 0 428 0 32 37 c18 20 46 66 63 101 26 56 30 79 38
200 4 75 28 297 53 492 25 195 46 374 46 398 0 48 -29 86 -74 98 l-26 6 0 769
0 768 293 3 294 3 41 28 c23 15 52 46 64 70 l23 42 3 908 c2 618 -1 921 -8
948 -6 22 -25 56 -43 76 -59 67 -64 68 -442 71 -261 2 -346 0 -365 -10 -14 -7
-90 -100 -170 -206 l-145 -192 -376 0 -377 0 -143 70 c-201 98 -299 123 -489
123 -189 0 -286 -24 -489 -123 l-143 -70 -377 0 -376 0 -145 192 c-80 106
-156 198 -170 205 -28 14 -511 16 -591 3z m31 -300 l0 -100 -40 0 -40 0 0 63
c1 68 15 103 51 123 13 7 25 13 27 14 1 0 2 -45 2 -100z m416 -22 c-3 -68 -6
-459 -6 -870 l0 -748 -100 0 -100 0 0 870 0 870 106 0 106 0 -6 -122z m3894
-748 l0 -870 -100 0 -100 0 -2 758 c-1 416 -2 808 -3 870 l-2 112 103 0 104 0
0 -870z m300 770 l0 -100 -45 0 -45 0 0 100 0 100 45 0 45 0 0 -100z m-2165
-129 c87 -21 195 -67 195 -82 0 -13 -372 -609 -380 -609 -8 0 -380 595 -380
607 0 15 108 62 190 83 103 26 268 26 375 1z m-1766 -56 l41 -54 0 -500 0
-499 -27 -10 c-16 -5 -36 -13 -45 -17 -17 -7 -18 24 -18 564 0 314 2 571 4
571 2 0 22 -25 45 -55z m3211 -539 l0 -595 -45 26 -45 25 0 514 0 515 41 54
c23 30 43 55 45 55 2 0 4 -267 4 -594z m-2104 266 l93 -147 -27 -7 c-15 -4
-74 -7 -132 -5 -125 2 -153 -9 -170 -72 -16 -61 12 -111 73 -126 25 -7 27 -11
27 -54 0 -86 64 -151 150 -151 86 0 150 65 150 153 0 46 0 47 33 47 29 0 36
-7 71 -66 21 -35 37 -66 35 -68 -2 -2 -23 -15 -46 -29 -100 -63 -169 -170
-186 -292 -16 -115 18 -192 105 -236 37 -19 55 -20 312 -17 l273 3 37 29 c48
36 74 79 82 134 13 85 -30 221 -93 296 -26 32 -113 101 -135 108 -8 3 1 26 27
71 36 60 43 67 73 67 32 0 32 -1 32 -47 0 -88 64 -153 150 -153 86 0 150 65
150 151 0 43 2 47 28 54 60 15 88 65 72 126 -16 60 -47 74 -149 72 -47 -2
-107 1 -133 5 l-47 7 95 150 c52 83 98 149 103 148 16 -4 501 -354 501 -362 0
-4 -46 -18 -102 -32 -63 -14 -112 -32 -128 -45 l-25 -22 -5 -709 c-5 -686 -6
-710 -27 -784 -80 -285 -305 -507 -587 -579 -110 -28 -302 -28 -412 0 -280 72
-498 285 -586 572 -22 72 -22 85 -28 786 l-5 714 -25 22 c-16 13 -65 31 -128
46 -56 13 -101 28 -99 33 4 13 501 366 507 361 2 -3 46 -71 96 -152z m-467
145 c-2 -2 -91 -65 -196 -140 l-193 -137 0 140 0 140 197 0 c108 0 194 -2 192
-3z m2271 -132 c0 -74 -3 -135 -6 -135 -7 0 -374 260 -374 266 0 2 86 4 190 4
l190 0 0 -135z m-2354 -458 c2 -2 1 -74 -2 -161 l-7 -156 -149 0 -148 0 0 199
0 199 151 -38 c83 -21 152 -40 155 -43z m2354 -117 l0 -200 -149 0 -148 0 -6
158 c-2 86 -4 158 -2 160 2 2 70 21 152 42 81 21 149 38 151 39 1 1 2 -89 2
-199z m-2355 -797 c0 -211 -3 -383 -6 -383 -12 0 -412 151 -448 169 -54 28
-117 103 -137 164 -21 64 -21 176 0 235 32 90 113 161 215 188 30 8 105 12
211 11 l165 -2 0 -382z m2429 372 c103 -27 184 -102 216 -200 21 -63 16 -184
-10 -242 -26 -60 -81 -118 -140 -147 -53 -27 -440 -170 -443 -165 -1 2 -1 176
1 387 l4 382 157 0 c108 0 175 -5 215 -15z m-2649 -900 c181 -66 297 -114 308
-127 16 -19 17 -56 17 -464 l0 -444 -360 0 -360 0 0 600 0 600 53 -29 c28 -16
183 -77 342 -136z m2885 -435 l0 -600 -360 0 -360 0 0 444 c0 408 1 445 18
464 10 12 134 64 317 132 166 61 319 122 340 135 22 13 41 25 43 25 1 0 2
-270 2 -600z m-930 -151 c-23 -29 -27 -39 -15 -39 12 0 15 -16 15 -100 l0
-100 -50 0 -50 0 0 147 0 147 63 57 62 56 3 -65 c3 -60 1 -68 -28 -103z
m-1330 -139 l0 -100 -50 0 -50 0 0 100 0 100 50 0 50 0 0 -100z m286 53 l42
-14 -10 -42 c-5 -23 -8 -54 -5 -69 3 -28 3 -28 -50 -28 l-53 0 0 91 c0 83 2
90 18 84 9 -4 36 -14 58 -22z m744 -63 l0 -90 -53 0 c-53 0 -53 0 -50 28 3 15
0 46 -5 69 l-10 41 52 20 c28 11 54 20 59 21 4 0 7 -39 7 -89z m-318 -25 c9
-21 8 -28 -7 -45 -26 -29 -144 -29 -170 0 -15 17 -16 24 -7 45 11 24 16 25 92
25 76 0 81 -1 92 -25z m-7 -294 c116 -54 144 -156 81 -306 -41 -99 -150 -290
-166 -290 -16 0 -125 191 -166 290 -35 84 -43 150 -23 202 25 68 110 123 189
123 25 0 63 -9 85 -19z m-1015 -291 l0 -100 -384 0 -383 0 -12 88 c-6 49 -11
94 -11 100 0 9 98 12 395 12 l395 0 0 -100z m2650 88 c0 -6 -5 -51 -11 -100
l-12 -88 -383 0 -384 0 0 100 0 100 395 0 c297 0 395 -3 395 -12z m-2232 -569
c-3 -65 -6 -74 -36 -100 -29 -26 -40 -29 -97 -29 l-65 0 0 100 0 100 101 0
101 0 -4 -71z m1222 -29 l0 -100 -65 0 c-57 0 -68 3 -97 29 -30 26 -33 35 -36
100 l-4 71 101 0 101 0 0 -100z m-1635 -210 c12 -19 -17 -92 -52 -131 -52 -58
-101 -69 -303 -69 -201 0 -251 11 -303 69 -32 35 -57 92 -57 129 0 15 705 18
715 2z m2565 -2 c0 -37 -25 -94 -57 -129 -52 -58 -102 -69 -303 -69 -202 0
-251 11 -303 69 -35 39 -64 112 -52 131 10 16 715 13 715 -2z"/>
<path d="M1980 3142 c-23 -24 -30 -39 -30 -70 0 -54 27 -85 104 -115 243 -98
592 -116 870 -46 112 29 203 67 226 96 31 40 27 98 -10 135 -27 26 -36 29 -73
25 -23 -2 -72 -16 -109 -30 -119 -46 -217 -62 -398 -62 -181 0 -279 16 -398
62 -37 14 -86 28 -109 30 -37 4 -46 1 -73 -25z"/>
</g>
</svg>
